{"title":"Doctor.Who.2005.S06E08.Lets.Kill.Hitler.HDTV.272p.H264.AAC-k3n.m","uid":6634356,"size":104501256,"categoryP":"video","categoryS":"tv_shows","magnet":"?xt=urn:btih:0f78e09b7483af991d1a978a80304710e1bd021d&amp;dn=Doctor.Who.2005.S06E08.Lets.Kill.Hitler.HDTV.272p.H264.AAC-k3n.m&amp;tr=udp%3A%2F%2Ftracker.openbittorrent.com%3A80&amp;tr=udp%3A%2F%2Fopen.demonii.com%3A1337&amp;tr=udp%3A%2F%2Ftracker.coppersurfer.tk%3A6969&amp;tr=udp%3A%2F%2Fexodus.desync.com%3A6969","seeders":1,"leechers":1,"uploader":"k3nd00d","files":-1,"time":1314495116,"description":"General\nFormat                           : MPEG-4\nFormat profile                   : Base Media / Version 2\nCodec ID                         : mp42\nFile size                        : 99.7 MiB\nDuration                         : 48mn 2s\nOverall bit rate                 : 290 Kbps\n\nVideo\nID                               : 1\nFormat                           : AVC\nFormat/Info                      : Advanced Video Codec\nFormat profile                   : &lt;a class=&quot;__cf_email__&quot; href=&quot;/cdn-cgi/l/email-protection&quot; data-cfemail=&quot;581a392b3d3431363d18146a7669&quot;&gt;[email&amp;#160;protected]&lt;/a&gt;&lt;script cf-hash='f9e31' type=&quot;text/javascript&quot;&gt;\n/* &lt;![CDATA[ */!function(){try{var t=&quot;currentScript&quot;in document?document.currentScript:function(){for(var t=document.getElementsByTagName(&quot;script&quot;),e=t.length;e--;)if(t[e].getAttribute(&quot;cf-hash&quot;))return t[e]}();if(t&amp;&amp;t.previousSibling){var e,r,n,i,c=t.previousSibling,a=c.getAttribute(&quot;data-cfemail&quot;);if(a){for(e=&quot;&quot;,r=parseInt(a.substr(0,2),16),n=2;a.length-n;n+=2)i=parseInt(a.substr(n,2),16)^r,e+=String.fromCharCode(i);e=document.createTextNode(e),c.parentNode.replaceChild(e,c)}}}catch(u){}}();/* ]]&gt; */&lt;/script&gt;\nFormat settings, CABAC           : No\nFormat settings, ReFrames        : 2 frames\nCodec ID                         : avc1\nCodec ID/Info                    : Advanced Video Coding\nDuration                         : 48mn 2s\nBit rate mode                    : Variable\nBit rate                         : 240 Kbps\nWidth                            : 480 pixels\nHeight                           : 272 pixels\nDisplay aspect ratio             : 16:9\nFrame rate mode                  : Variable\nFrame rate                       : 25.000 fps\nMinimum frame rate               : 12.500 fps\nMaximum frame rate               : 25.000 fps\nColor space                      : YUV\nChroma subsampling               : 4:2:0\nBit depth                        : 8 bits\nScan type                        : Progressive\nBits/(Pixel*Frame)               : 0.074\nStream size                      : 82.4 MiB (83%)\nWriting library                  : x264 core 79\n\nAudio\nID                               : 2\nFormat                           : AAC\nFormat/Info                      : Advanced Audio Codec\nFormat profile                   : LC\nCodec ID                         : 40\nDuration                         : 48mn 2s\nBit rate mode                    : Variable\nBit rate                         : 48.0 Kbps\nMaximum bit rate                 : 66.3 Kbps\nChannel(s)                       : 2 channels\nChannel positions                : Front: L R\nSampling rate                    : 24.0 KHz\nCompression mode                 : Lossy\nStream size                      : 16.5 MiB (17%)\n","torrent":{"xt":"urn:btih:0f78e09b7483af991d1a978a80304710e1bd021d","amp;dn":"Doctor.Who.2005.S06E08.Lets.Kill.Hitler.HDTV.272p.H264.AAC-k3n.m","amp;tr":["udp%3A%2F%2Ftracker.openbittorrent.com%3A80","udp%3A%2F%2Fopen.demonii.com%3A1337","udp%3A%2F%2Ftracker.coppersurfer.tk%3A6969","udp%3A%2F%2Fexodus.desync.com%3A6969"],"infoHash":"0f78e09b7483af991d1a978a80304710e1bd021d","infoHashBuffer":{"type":"Buffer","data":[15,120,224,155,116,131,175,153,29,26,151,138,128,48,71,16,225,189,2,29]},"announce":[],"urlList":[]}}